<svg width="430" height="932" viewBox="0 0 430 932" fill="none" xmlns="http://www.w3.org/2000/svg">
<g clip-path="url(#clip0_86_87)">
<rect width="430" height="932" fill="#141326"/>
<g opacity="0.2">
<path d="M428.586 61.0067H423.548V66.0455H424.627L296.783 242.429L241.775 133.182C241.721 133.074 241.606 133 241.484 133C241.363 133 241.248 133.06 241.181 133.162L138.881 304.79H134.564V305.383L83.5156 260.918C83.3875 260.803 83.1918 260.803 83.0637 260.918L5.74871 332.203H1V337.241H6.03876V332.864L83.3065 261.626L134.571 306.28V309.828H139.603V304.904L241.444 134.038L296.425 243.232C296.479 243.34 296.58 243.407 296.702 243.414C296.823 243.427 296.931 243.373 297.005 243.272L425.457 66.0388H428.58V61L428.586 61.0067Z" fill="url(#paint0_linear_86_87)"/>
<path d="M245.012 103.32H237.599V125.263H245.012V103.32Z" fill="url(#paint1_linear_86_87)"/>
<path d="M131.272 90.2882C131.272 91.8733 129.991 93.1549 128.406 93.1549C126.821 93.1549 125.539 91.8733 125.539 90.2882C125.539 88.703 126.821 87.4214 128.406 87.4214C129.991 87.4214 131.272 88.703 131.272 90.2882Z" fill="url(#paint2_linear_86_87)"/>
<path d="M274.051 106.187C274.051 107.772 272.769 109.054 271.184 109.054C269.599 109.054 268.317 107.772 268.317 106.187C268.317 104.602 269.599 103.32 271.184 103.32C272.769 103.32 274.051 104.602 274.051 106.187Z" fill="url(#paint3_linear_86_87)"/>
<path d="M222.152 239.043C222.152 240.628 220.871 241.91 219.286 241.91C217.7 241.91 216.419 240.628 216.419 239.043C216.419 237.458 217.7 236.176 219.286 236.176C220.871 236.176 222.152 237.458 222.152 239.043Z" fill="url(#paint4_linear_86_87)"/>
<path d="M56.7902 174.058C56.7902 175.643 55.5086 176.925 53.9235 176.925C52.3383 176.925 51.0567 175.643 51.0567 174.058C51.0567 172.473 52.3383 171.191 53.9235 171.191C55.5086 171.191 56.7902 172.473 56.7902 174.058Z" fill="url(#paint5_linear_86_87)"/>
<path d="M15.6511 294.84V337.754" stroke="url(#paint6_linear_86_87)" stroke-miterlimit="10"/>
<path d="M39.8599 272.831V315.744" stroke="url(#paint7_linear_86_87)" stroke-miterlimit="10"/>
<path d="M88.2647 249.134V292.055" stroke="url(#paint8_linear_86_87)" stroke-miterlimit="10"/>
<path d="M112.541 157.85V200.763" stroke="url(#paint9_linear_86_87)" stroke-miterlimit="10"/>
<path d="M136.318 210.902V270.139" stroke="url(#paint10_linear_86_87)" stroke-width="1.17" stroke-miterlimit="10"/>
<path d="M161.013 197.31V256.54" stroke="url(#paint11_linear_86_87)" stroke-width="1.17" stroke-miterlimit="10"/>
<path d="M185.093 236.176V295.407" stroke="url(#paint12_linear_86_87)" stroke-width="1.17" stroke-miterlimit="10"/>
<path d="M233.377 192.338V251.569" stroke="url(#paint13_linear_86_87)" stroke-width="1.17" stroke-miterlimit="10"/>
<path d="M282.125 97.0742V163.846" stroke="url(#paint14_linear_86_87)" stroke-width="1.25" stroke-miterlimit="10"/>
<path d="M306.105 107.287V174.059" stroke="url(#paint15_linear_86_87)" stroke-width="1.25" stroke-miterlimit="10"/>
<path d="M354.503 69.9375V136.703" stroke="url(#paint16_linear_86_87)" stroke-width="1.25" stroke-miterlimit="10"/>
<path d="M402.732 107.287V174.059" stroke="url(#paint17_linear_86_87)" stroke-width="1.25" stroke-miterlimit="10"/>
<path d="M329.956 178.341V233.457" stroke="url(#paint18_linear_86_87)" stroke-width="1.13" stroke-miterlimit="10"/>
<path d="M19.3608 315.744H11.9477V338.847H19.3608V315.744Z" fill="url(#paint19_linear_86_87)"/>
<path d="M43.5636 286.173H36.1505V309.276H43.5636V286.173Z" fill="url(#paint20_linear_86_87)"/>
<path d="M67.6914 235.974H60.2782V292.028H67.6914V235.974Z" fill="url(#paint21_linear_86_87)"/>
<path d="M91.9676 233.633H84.5545V256.534H91.9676V233.633Z" fill="url(#paint22_linear_86_87)"/>
<path d="M116.251 187.07H108.838V245.809H116.251V187.07Z" fill="url(#paint23_linear_86_87)"/>
<path d="M140.021 249.201H132.608V279.198H140.021V249.201Z" fill="url(#paint24_linear_86_87)"/>
<path d="M164.716 246.571H157.303V290.686H164.716V246.571Z" fill="url(#paint25_linear_86_87)"/>
<path d="M188.796 204.264H181.383V263.009H188.796V204.264Z" fill="url(#paint26_linear_86_87)"/>
<path d="M237.437 159.455H230.024V218.2H237.437V159.455Z" fill="url(#paint27_linear_86_87)"/>
<path d="M285.835 145.6H278.422V167.542H285.835V145.6Z" fill="url(#paint28_linear_86_87)"/>
<path d="M309.808 140.676H302.395V199.421H309.808V140.676Z" fill="url(#paint29_linear_86_87)"/>
<path d="M333.667 218.2H326.253V240.143H333.667V218.2Z" fill="url(#paint30_linear_86_87)"/>
<path d="M358.206 119.266H350.792V229.896H358.206V119.266Z" fill="url(#paint31_linear_86_87)"/>
<path d="M406.144 153.317H398.731V205.296H406.144V153.317Z" fill="url(#paint32_linear_86_87)"/>
</g>
<g filter="url(#filter0_f_86_87)">
<ellipse cx="413.5" cy="949.5" rx="162.5" ry="237.5" fill="#F54EFD"/>
</g>
<g filter="url(#filter1_f_86_87)">
<ellipse cx="88.5" cy="-0.5" rx="162.5" ry="97.5" fill="#8320E4"/>
</g>
<g opacity="0.6">
<path d="M115.946 223.607C147.948 223.607 173.891 219.627 173.891 214.718C173.891 209.808 147.948 205.828 115.946 205.828C83.9432 205.828 58 209.808 58 214.718C58 219.627 83.9432 223.607 115.946 223.607Z" fill="url(#paint33_radial_86_87)" style="mix-blend-mode:multiply"/>
</g>
<path d="M106.848 188.958V206.759" stroke="white" stroke-linecap="round"/>
<path d="M129.186 138V155.801" stroke="white" stroke-linecap="round"/>
<path d="M147.721 176.429C145.257 165.351 129.634 163.584 120.301 163.584V186.516L112.085 189.043V203.549C115.073 202.655 120.546 201.008 121.285 200.749C125.348 199.318 129.348 197.65 133.132 195.577C140.098 191.772 149.808 185.804 147.721 176.422V176.429Z" fill="url(#paint34_linear_86_87)"/>
<path d="M123.847 141.197C120.846 142.097 115.45 143.717 114.724 143.975C110.661 145.406 106.661 147.074 102.877 149.148C95.9107 152.952 86.2007 158.914 88.2879 168.296C90.7521 179.374 106.375 181.14 115.708 181.14V158.209L123.847 155.703V141.197Z" fill="url(#paint35_linear_86_87)"/>
<path d="M131.275 152.914C131.275 153.372 130.964 153.771 130.52 153.883L128.604 154.368C127.972 154.528 127.359 154.051 127.359 153.399V141.194C127.359 140.739 127.665 140.342 128.105 140.227L130.021 139.724C130.655 139.558 131.275 140.037 131.275 140.692V152.914Z" fill="url(#paint36_linear_86_87)"/>
<path d="M108.881 203.872C108.881 204.331 108.569 204.73 108.125 204.842L106.216 205.323C105.584 205.482 104.972 205.004 104.972 204.353V192.147C104.972 191.692 105.279 191.295 105.719 191.18L107.629 190.682C108.262 190.517 108.881 190.995 108.881 191.65V203.872Z" fill="url(#paint37_linear_86_87)"/>
<g filter="url(#filter2_d_86_87)">
<path d="M179.318 186.425C176.798 186.425 174.713 186.08 173.063 185.39C171.443 184.7 170.273 183.71 169.553 182.42C168.833 181.1 168.548 179.51 168.698 177.65C168.758 177.14 168.968 176.885 169.328 176.885H173.558C173.948 176.885 174.128 177.11 174.098 177.56C174.098 179.03 174.548 180.11 175.448 180.8C176.348 181.46 177.728 181.79 179.588 181.79C181.418 181.79 182.768 181.505 183.638 180.935C184.538 180.335 184.988 179.42 184.988 178.19C184.988 177.62 184.883 177.125 184.673 176.705C184.463 176.255 184.103 175.865 183.593 175.535C183.083 175.175 182.393 174.815 181.523 174.455L174.998 171.665C173.558 171.035 172.403 170.36 171.533 169.64C170.663 168.89 170.048 168.035 169.688 167.075C169.328 166.115 169.148 165.02 169.148 163.79C169.178 161.24 170.033 159.29 171.713 157.94C173.393 156.59 175.898 155.915 179.228 155.915C181.568 155.915 183.548 156.245 185.168 156.905C186.818 157.535 188.048 158.48 188.858 159.74C189.668 160.97 189.983 162.515 189.803 164.375C189.743 164.915 189.563 165.185 189.263 165.185H184.988C184.808 165.185 184.673 165.125 184.583 165.005C184.493 164.885 184.463 164.675 184.493 164.375C184.583 163.175 184.148 162.23 183.188 161.54C182.258 160.82 180.923 160.46 179.183 160.46C177.653 160.46 176.498 160.73 175.718 161.27C174.938 161.81 174.548 162.62 174.548 163.7C174.548 164.27 174.653 164.78 174.863 165.23C175.073 165.65 175.433 166.04 175.943 166.4C176.483 166.76 177.203 167.135 178.103 167.525L184.538 170.27C186.008 170.87 187.163 171.545 188.003 172.295C188.873 173.015 189.488 173.855 189.848 174.815C190.238 175.775 190.418 176.915 190.388 178.235C190.388 180.845 189.503 182.87 187.733 184.31C185.963 185.72 183.158 186.425 179.318 186.425ZM204.125 186.425C202.385 186.425 200.99 186.155 199.94 185.615C198.92 185.075 198.17 184.235 197.69 183.095C197.24 181.955 197.015 180.5 197.015 178.73V168.2H193.73C193.37 168.2 193.19 168.02 193.19 167.66V164.285C193.19 163.925 193.37 163.745 193.73 163.745H197.195L197.78 158.345C197.84 158.015 198.035 157.85 198.365 157.85H201.785C202.145 157.85 202.325 158.03 202.325 158.39V163.745H208.49C208.85 163.745 209.03 163.925 209.03 164.285V167.66C209.03 168.02 208.85 168.2 208.49 168.2H202.325V178.46C202.325 179.66 202.55 180.53 203 181.07C203.45 181.61 204.2 181.88 205.25 181.88C205.79 181.88 206.33 181.82 206.87 181.7C207.44 181.58 207.965 181.415 208.445 181.205C208.625 181.145 208.775 181.16 208.895 181.25C209.015 181.31 209.075 181.43 209.075 181.61V185.075C209.075 185.375 208.94 185.57 208.67 185.66C208.07 185.9 207.38 186.08 206.6 186.2C205.85 186.35 205.025 186.425 204.125 186.425ZM222.157 186.425C218.977 186.425 216.517 185.675 214.777 184.175C213.067 182.645 212.212 180.335 212.212 177.245V172.385C212.212 169.325 213.067 167.03 214.777 165.5C216.487 163.97 218.947 163.205 222.157 163.205C225.337 163.205 227.782 163.97 229.492 165.5C231.202 167.03 232.057 169.325 232.057 172.385V177.245C232.057 180.335 231.202 182.645 229.492 184.175C227.812 185.675 225.367 186.425 222.157 186.425ZM222.157 181.88C223.777 181.88 224.947 181.475 225.667 180.665C226.387 179.825 226.747 178.52 226.747 176.75V172.88C226.747 171.11 226.387 169.82 225.667 169.01C224.947 168.17 223.777 167.75 222.157 167.75C220.537 167.75 219.352 168.17 218.602 169.01C217.882 169.82 217.522 171.11 217.522 172.88V176.75C217.522 178.52 217.882 179.825 218.602 180.665C219.352 181.475 220.537 181.88 222.157 181.88ZM234.59 185.885C234.38 185.885 234.245 185.825 234.185 185.705C234.125 185.555 234.155 185.405 234.275 185.255L241.835 174.5L234.77 164.375C234.65 164.195 234.62 164.045 234.68 163.925C234.77 163.805 234.92 163.745 235.13 163.745H240.08C240.38 163.745 240.59 163.85 240.71 164.06L243.185 167.885C243.515 168.395 243.845 168.935 244.175 169.505C244.505 170.075 244.82 170.615 245.12 171.125H245.165C245.495 170.555 245.84 169.985 246.2 169.415C246.56 168.845 246.905 168.275 247.235 167.705L249.62 164.105C249.74 163.865 249.95 163.745 250.25 163.745H255.02C255.23 163.745 255.365 163.805 255.425 163.925C255.515 164.045 255.5 164.195 255.38 164.375L248.315 174.41L255.965 185.255C256.085 185.405 256.115 185.555 256.055 185.705C255.995 185.825 255.86 185.885 255.65 185.885H250.655C250.385 185.885 250.175 185.78 250.025 185.57L247.64 181.97C247.22 181.31 246.8 180.635 246.38 179.945C245.96 179.255 245.525 178.565 245.075 177.875H245.03C244.64 178.535 244.235 179.225 243.815 179.945C243.395 180.635 242.975 181.31 242.555 181.97L240.17 185.57C240.11 185.69 240.02 185.78 239.9 185.84C239.81 185.87 239.69 185.885 239.54 185.885H234.59ZM270.406 186.425C269.356 186.425 268.216 186.275 266.986 185.975C265.786 185.705 264.781 185.33 263.971 184.85L263.881 180.62C264.661 181.07 265.501 181.415 266.401 181.655C267.301 181.865 268.141 181.97 268.921 181.97C270.361 181.97 271.411 181.535 272.071 180.665C272.731 179.795 273.061 178.52 273.061 176.84V172.07C273.061 170.6 272.806 169.52 272.296 168.83C271.786 168.14 270.991 167.795 269.911 167.795C268.981 167.795 268.036 168.08 267.076 168.65C266.116 169.22 264.976 170.105 263.656 171.305L263.431 167.345C264.301 166.505 265.171 165.785 266.041 165.185C266.911 164.555 267.811 164.075 268.741 163.745C269.671 163.385 270.676 163.205 271.756 163.205C273.946 163.205 275.596 163.865 276.706 165.185C277.816 166.475 278.371 168.47 278.371 171.17V177.335C278.371 180.395 277.681 182.675 276.301 184.175C274.951 185.675 272.986 186.425 270.406 186.425ZM259.831 194.21C259.501 194.21 259.336 194.03 259.336 193.67V169.1C259.336 168.32 259.306 167.51 259.246 166.67C259.186 165.83 259.111 165.05 259.021 164.33C258.991 163.94 259.171 163.745 259.561 163.745H263.341C263.671 163.745 263.866 163.91 263.926 164.24C263.986 164.48 264.046 164.795 264.106 165.185C264.166 165.545 264.211 165.92 264.241 166.31C264.271 166.7 264.286 167.015 264.286 167.255L264.646 169.775V193.67C264.646 194.03 264.466 194.21 264.106 194.21H259.831ZM284.132 185.885C283.802 185.885 283.637 185.705 283.637 185.345V155.69C283.637 155.33 283.802 155.15 284.132 155.15H288.407C288.767 155.15 288.947 155.33 288.947 155.69V185.345C288.947 185.705 288.767 185.885 288.407 185.885H284.132ZM307.673 185.885C307.493 185.885 307.358 185.84 307.268 185.75C307.208 185.63 307.148 185.48 307.088 185.3C307.028 185 306.953 184.49 306.863 183.77C306.773 183.02 306.698 182.33 306.638 181.7L306.323 179.855V170.855C306.323 169.595 306.068 168.71 305.558 168.2C305.048 167.66 304.163 167.39 302.903 167.39C300.623 167.39 299.513 168.215 299.573 169.865C299.573 170.225 299.408 170.405 299.078 170.405H295.028C294.668 170.405 294.473 170.135 294.443 169.595C294.263 167.585 294.938 166.025 296.468 164.915C298.028 163.775 300.248 163.205 303.128 163.205C306.068 163.205 308.213 163.835 309.563 165.095C310.943 166.355 311.633 168.305 311.633 170.945V180.305C311.633 181.265 311.648 182.165 311.678 183.005C311.738 183.845 311.813 184.61 311.903 185.3C311.963 185.69 311.798 185.885 311.408 185.885H307.673ZM299.078 186.425C297.278 186.425 295.898 185.885 294.938 184.805C293.978 183.725 293.498 182.18 293.498 180.17C293.498 178.61 293.798 177.35 294.398 176.39C294.998 175.4 295.973 174.635 297.323 174.095C298.703 173.525 300.533 173.15 302.813 172.97L306.998 172.61V175.85L303.263 176.165C301.523 176.315 300.323 176.645 299.663 177.155C299.003 177.665 298.673 178.49 298.673 179.63C298.673 180.5 298.853 181.16 299.213 181.61C299.573 182.03 300.128 182.24 300.878 182.24C301.778 182.24 302.693 181.955 303.623 181.385C304.553 180.785 305.723 179.735 307.133 178.235L307.313 181.835C306.413 182.825 305.528 183.665 304.658 184.355C303.788 185.045 302.903 185.555 302.003 185.885C301.103 186.245 300.128 186.425 299.078 186.425ZM320.503 194.21C320.083 194.21 319.963 194 320.143 193.58L323.158 185.705L314.923 164.375C314.773 163.955 314.908 163.745 315.328 163.745H319.963C320.263 163.745 320.458 163.895 320.548 164.195L323.788 173.42C324.118 174.35 324.433 175.34 324.733 176.39C325.033 177.41 325.318 178.445 325.588 179.495H325.678C325.978 178.445 326.278 177.41 326.578 176.39C326.878 175.37 327.193 174.38 327.523 173.42L330.763 164.195C330.853 163.895 331.048 163.745 331.348 163.745H335.848C336.028 163.745 336.163 163.805 336.253 163.925C336.343 164.045 336.358 164.195 336.298 164.375L325.273 193.805C325.153 194.075 324.958 194.21 324.688 194.21H320.503Z" fill="white"/>
</g>
</g>
<defs>
<filter id="filter0_f_86_87" x="-149" y="312" width="1125" height="1275" filterUnits="userSpaceOnUse" color-interpolation-filters="sRGB">
<feFlood flood-opacity="0" result="BackgroundImageFix"/>
<feBlend mode="normal" in="SourceGraphic" in2="BackgroundImageFix" result="shape"/>
<feGaussianBlur stdDeviation="200" result="effect1_foregroundBlur_86_87"/>
</filter>
<filter id="filter1_f_86_87" x="-474" y="-498" width="1125" height="995" filterUnits="userSpaceOnUse" color-interpolation-filters="sRGB">
<feFlood flood-opacity="0" result="BackgroundImageFix"/>
<feBlend mode="normal" in="SourceGraphic" in2="BackgroundImageFix" result="shape"/>
<feGaussianBlur stdDeviation="200" result="effect1_foregroundBlur_86_87"/>
</filter>
<filter id="filter2_d_86_87" x="165.473" y="155.15" width="175.915" height="50.0601" filterUnits="userSpaceOnUse" color-interpolation-filters="sRGB">
<feFlood flood-opacity="0" result="BackgroundImageFix"/>
<feColorMatrix in="SourceAlpha" type="matrix" values="0 0 0 0 0 0 0 0 0 0 0 0 0 0 0 0 0 0 127 0" result="hardAlpha"/>
<feOffset dx="1" dy="7"/>
<feGaussianBlur stdDeviation="2"/>
<feComposite in2="hardAlpha" operator="out"/>
<feColorMatrix type="matrix" values="0 0 0 0 0 0 0 0 0 0 0 0 0 0 0 0 0 0 0.25 0"/>
<feBlend mode="normal" in2="BackgroundImageFix" result="effect1_dropShadow_86_87"/>
<feBlend mode="normal" in="SourceGraphic" in2="effect1_dropShadow_86_87" result="shape"/>
</filter>
<linearGradient id="paint0_linear_86_87" x1="409.47" y1="86.1938" x2="85.0805" y2="321.93" gradientUnits="userSpaceOnUse">
<stop stop-color="#34FFFF"/>
<stop offset="1" stop-color="#0D143D"/>
</linearGradient>
<linearGradient id="paint1_linear_86_87" x1="260.978" y1="99.9949" x2="231.13" y2="121.688" gradientUnits="userSpaceOnUse">
<stop stop-color="#FA9733"/>
<stop offset="1" stop-color="#FF34FF"/>
</linearGradient>
<linearGradient id="paint2_linear_86_87" x1="134.375" y1="85.9509" x2="125.323" y2="92.5276" gradientUnits="userSpaceOnUse">
<stop stop-color="#FA9733"/>
<stop offset="1" stop-color="#FF34FF"/>
</linearGradient>
<linearGradient id="paint3_linear_86_87" x1="277.154" y1="101.85" x2="268.102" y2="108.427" gradientUnits="userSpaceOnUse">
<stop stop-color="#FA9733"/>
<stop offset="1" stop-color="#FF34FF"/>
</linearGradient>
<linearGradient id="paint4_linear_86_87" x1="225.248" y1="234.706" x2="216.196" y2="241.282" gradientUnits="userSpaceOnUse">
<stop stop-color="#BB33FA"/>
<stop offset="1" stop-color="#34FFFF"/>
</linearGradient>
<linearGradient id="paint5_linear_86_87" x1="59.8931" y1="169.721" x2="50.8408" y2="176.298" gradientUnits="userSpaceOnUse">
<stop stop-color="#FA9733"/>
<stop offset="1" stop-color="#FF34FF"/>
</linearGradient>
<linearGradient id="paint6_linear_86_87" x1="-nan" y1="-nan" x2="-nan" y2="-nan" gradientUnits="userSpaceOnUse">
<stop stop-color="#BB33FA"/>
<stop offset="1" stop-color="#34FFFF"/>
</linearGradient>
<linearGradient id="paint7_linear_86_87" x1="-nan" y1="-nan" x2="-nan" y2="-nan" gradientUnits="userSpaceOnUse">
<stop stop-color="#BB33FA"/>
<stop offset="1" stop-color="#34FFFF"/>
</linearGradient>
<linearGradient id="paint8_linear_86_87" x1="-nan" y1="-nan" x2="-nan" y2="-nan" gradientUnits="userSpaceOnUse">
<stop stop-color="#BB33FA"/>
<stop offset="1" stop-color="#34FFFF"/>
</linearGradient>
<linearGradient id="paint9_linear_86_87" x1="-nan" y1="-nan" x2="-nan" y2="-nan" gradientUnits="userSpaceOnUse">
<stop stop-color="#BB33FA"/>
<stop offset="1" stop-color="#34FFFF"/>
</linearGradient>
<linearGradient id="paint10_linear_86_87" x1="-nan" y1="-nan" x2="-nan" y2="-nan" gradientUnits="userSpaceOnUse">
<stop stop-color="#BB33FA"/>
<stop offset="1" stop-color="#34FFFF"/>
</linearGradient>
<linearGradient id="paint11_linear_86_87" x1="-nan" y1="-nan" x2="-nan" y2="-nan" gradientUnits="userSpaceOnUse">
<stop stop-color="#BB33FA"/>
<stop offset="1" stop-color="#34FFFF"/>
</linearGradient>
<linearGradient id="paint12_linear_86_87" x1="-nan" y1="-nan" x2="-nan" y2="-nan" gradientUnits="userSpaceOnUse">
<stop stop-color="#BB33FA"/>
<stop offset="1" stop-color="#34FFFF"/>
</linearGradient>
<linearGradient id="paint13_linear_86_87" x1="-nan" y1="-nan" x2="-nan" y2="-nan" gradientUnits="userSpaceOnUse">
<stop stop-color="#BB33FA"/>
<stop offset="1" stop-color="#34FFFF"/>
</linearGradient>
<linearGradient id="paint14_linear_86_87" x1="-nan" y1="-nan" x2="-nan" y2="-nan" gradientUnits="userSpaceOnUse">
<stop stop-color="#BB33FA"/>
<stop offset="1" stop-color="#34FFFF"/>
</linearGradient>
<linearGradient id="paint15_linear_86_87" x1="-nan" y1="-nan" x2="-nan" y2="-nan" gradientUnits="userSpaceOnUse">
<stop stop-color="#BB33FA"/>
<stop offset="1" stop-color="#34FFFF"/>
</linearGradient>
<linearGradient id="paint16_linear_86_87" x1="-nan" y1="-nan" x2="-nan" y2="-nan" gradientUnits="userSpaceOnUse">
<stop stop-color="#BB33FA"/>
<stop offset="1" stop-color="#34FFFF"/>
</linearGradient>
<linearGradient id="paint17_linear_86_87" x1="-nan" y1="-nan" x2="-nan" y2="-nan" gradientUnits="userSpaceOnUse">
<stop stop-color="#BB33FA"/>
<stop offset="1" stop-color="#34FFFF"/>
</linearGradient>
<linearGradient id="paint18_linear_86_87" x1="-nan" y1="-nan" x2="-nan" y2="-nan" gradientUnits="userSpaceOnUse">
<stop stop-color="#BB33FA"/>
<stop offset="1" stop-color="#34FFFF"/>
</linearGradient>
<linearGradient id="paint19_linear_86_87" x1="124.993" y1="247.846" x2="-3.12812" y2="340.951" gradientUnits="userSpaceOnUse">
<stop stop-color="#BB33FA"/>
<stop offset="1" stop-color="#34FFFF"/>
</linearGradient>
<linearGradient id="paint20_linear_86_87" x1="149.195" y1="218.268" x2="21.0747" y2="311.373" gradientUnits="userSpaceOnUse">
<stop stop-color="#FA9733"/>
<stop offset="1" stop-color="#FF34FF"/>
</linearGradient>
<linearGradient id="paint21_linear_86_87" x1="165.485" y1="190.241" x2="37.371" y2="283.346" gradientUnits="userSpaceOnUse">
<stop stop-color="#BB33FA"/>
<stop offset="1" stop-color="#34FFFF"/>
</linearGradient>
<linearGradient id="paint22_linear_86_87" x1="138.983" y1="208.23" x2="74.9627" y2="254.753" gradientUnits="userSpaceOnUse">
<stop stop-color="#FA9733"/>
<stop offset="1" stop-color="#FF34FF"/>
</linearGradient>
<linearGradient id="paint23_linear_86_87" x1="154.74" y1="185.775" x2="90.72" y2="232.298" gradientUnits="userSpaceOnUse">
<stop stop-color="#FA9733"/>
<stop offset="1" stop-color="#FF34FF"/>
</linearGradient>
<linearGradient id="paint24_linear_86_87" x1="192.452" y1="223.407" x2="120.669" y2="275.569" gradientUnits="userSpaceOnUse">
<stop stop-color="#BB33FA"/>
<stop offset="1" stop-color="#34FFFF"/>
</linearGradient>
<linearGradient id="paint25_linear_86_87" x1="199.731" y1="240.494" x2="135.711" y2="287.016" gradientUnits="userSpaceOnUse">
<stop stop-color="#BB33FA"/>
<stop offset="1" stop-color="#34FFFF"/>
</linearGradient>
<linearGradient id="paint26_linear_86_87" x1="227.285" y1="202.975" x2="163.272" y2="249.491" gradientUnits="userSpaceOnUse">
<stop stop-color="#FA9733"/>
<stop offset="1" stop-color="#FF34FF"/>
</linearGradient>
<linearGradient id="paint27_linear_86_87" x1="275.926" y1="158.167" x2="211.906" y2="204.682" gradientUnits="userSpaceOnUse">
<stop stop-color="#BB33FA"/>
<stop offset="1" stop-color="#34FFFF"/>
</linearGradient>
<linearGradient id="paint28_linear_86_87" x1="301.801" y1="142.281" x2="271.953" y2="163.967" gradientUnits="userSpaceOnUse">
<stop stop-color="#FA9733"/>
<stop offset="1" stop-color="#FF34FF"/>
</linearGradient>
<linearGradient id="paint29_linear_86_87" x1="348.297" y1="139.381" x2="284.277" y2="185.903" gradientUnits="userSpaceOnUse">
<stop stop-color="#BB33FA"/>
<stop offset="1" stop-color="#34FFFF"/>
</linearGradient>
<linearGradient id="paint30_linear_86_87" x1="349.633" y1="214.875" x2="319.785" y2="236.568" gradientUnits="userSpaceOnUse">
<stop stop-color="#BB33FA"/>
<stop offset="1" stop-color="#34FFFF"/>
</linearGradient>
<linearGradient id="paint31_linear_86_87" x1="378.853" y1="156.891" x2="320.85" y2="199.036" gradientUnits="userSpaceOnUse">
<stop stop-color="#BB33FA"/>
<stop offset="1" stop-color="#34FFFF"/>
</linearGradient>
<linearGradient id="paint32_linear_86_87" x1="414.967" y1="170.2" x2="385.119" y2="191.893" gradientUnits="userSpaceOnUse">
<stop stop-color="#BB33FA"/>
<stop offset="1" stop-color="#34FFFF"/>
</linearGradient>
<radialGradient id="paint33_radial_86_87" cx="0" cy="0" r="1" gradientUnits="userSpaceOnUse" gradientTransform="translate(115.946 214.746) scale(54.6709 8.20121)">
<stop stop-color="#2E2E2E"/>
<stop offset="0.346667" stop-color="#777777" stop-opacity="0.653333"/>
<stop offset="1" stop-color="white" stop-opacity="0"/>
</radialGradient>
<linearGradient id="paint34_linear_86_87" x1="98.3878" y1="191.47" x2="140.008" y2="203.63" gradientUnits="userSpaceOnUse">
<stop stop-color="#3300D2"/>
<stop offset="1" stop-color="#FF52FF"/>
</linearGradient>
<linearGradient id="paint35_linear_86_87" x1="80.6805" y1="185.088" x2="118.621" y2="164.255" gradientUnits="userSpaceOnUse">
<stop stop-color="#3300D2"/>
<stop offset="1" stop-color="#FF52FF"/>
</linearGradient>
<linearGradient id="paint36_linear_86_87" x1="127.359" y1="147.04" x2="131.275" y2="147.04" gradientUnits="userSpaceOnUse">
<stop stop-color="#00E8D2"/>
<stop offset="0.33" stop-color="#00ADD2"/>
<stop offset="0.43" stop-color="#06A1D6"/>
<stop offset="0.61" stop-color="#1681E0"/>
<stop offset="0.84" stop-color="#304FF1"/>
<stop offset="1" stop-color="#4429FF"/>
</linearGradient>
<linearGradient id="paint37_linear_86_87" x1="104.972" y1="197.996" x2="108.881" y2="197.996" gradientUnits="userSpaceOnUse">
<stop stop-color="#00E8D2"/>
<stop offset="0.33" stop-color="#00ADD2"/>
<stop offset="0.43" stop-color="#06A1D6"/>
<stop offset="0.61" stop-color="#1681E0"/>
<stop offset="0.84" stop-color="#304FF1"/>
<stop offset="1" stop-color="#4429FF"/>
</linearGradient>
<clipPath id="clip0_86_87">
<rect width="430" height="932" fill="white"/>
</clipPath>
</defs>
</svg>
